<?xml version="1.0" encoding="utf-8"?>
<!-- Generator: Adobe Illustrator 22.1.0, SVG Export Plug-In . SVG Version: 6.00 Build 0)  -->
<svg version="1.1" id="Layer_1" xmlns="http://www.w3.org/2000/svg" xmlns:xlink="http://www.w3.org/1999/xlink" x="0px" y="0px"
	 viewBox="0 0 900 900" style="enable-background:new 0 0 900 900;" xml:space="preserve">
<style type="text/css">
	.st0{fill:#FFFFFF;}
	.st1{display:none;}
	.st2{display:inline;opacity:0.4;fill:#FFFFFF;enable-background:new    ;}
	.st3{display:inline;}
	.st4{display:inline;fill:#FFFFFF;}
	.st5{display:inline;opacity:0.5;fill:#FFFFFF;enable-background:new    ;}
	.st6{opacity:0.3;fill:#121212;enable-background:new    ;}
	.st7{fill:#121212;}
</style>
<g id="Layer_1_1_">
	<circle class="st0" cx="450" cy="450" r="450"/>
</g>
<g id="Layer_2_1_" class="st1">
	<rect x="664" y="221.3" class="st2" width="48.5" height="457.4"/>
	<rect x="334" y="221.3" class="st2" width="48.5" height="457.4"/>
	<g class="st3">
		<path class="st0" d="M37.2,629.5c7.3,16.7,15.6,32.9,24.8,48.5l319.5-456.3l-0.7-0.5H323L37.2,629.5z"/>
	</g>
	<polygon class="st4" points="391.5,678.7 711.5,221.8 710.8,221.3 653.1,221.3 332.8,678.7 	"/>
</g>
<g id="Layer_2_copy" class="st1">
	<rect x="658.9" y="221.3" class="st5" width="60" height="457.4"/>
	<polygon class="st4" points="396.4,678.9 716.9,221.1 643.6,221.1 323.1,678.9 	"/>
	<rect x="322.9" y="221.1" class="st5" width="60" height="457.4"/>
	<path class="st4" d="M62.4,678.8l320.4-457.6h-73.2L32.2,617.4C40.7,638.7,50.8,659.2,62.4,678.8z"/>
</g>
<g id="Layer_2_copy_2">
	<rect x="634.9" y="222.5" class="st6" width="80" height="455"/>
	<polygon class="st7" points="396.6,677 714.9,222.5 617.2,222.5 299,677 	"/>
	<rect x="298.9" y="222" class="st6" width="80" height="455"/>
	<path class="st7" d="M61,676.4l317.8-453.9h-97.7L22.7,591.6C32.6,621.4,45.5,649.8,61,676.4z"/>
</g>
</svg>
